<svg width="738" height="246" viewBox="0 0 738 246" fill="none" xmlns="http://www.w3.org/2000/svg">
<path fill-rule="evenodd" clip-rule="evenodd" d="M624.795 196.419C622.392 196.419 620.441 194.451 620.441 192.032C620.441 167.325 604.221 159.875 604.057 159.802C601.855 158.826 600.851 156.243 601.819 154.025C602.782 151.811 605.353 150.806 607.55 151.77C608.432 152.163 629.145 161.659 629.145 192.032C629.145 194.451 627.198 196.419 624.795 196.419ZM728.189 88.2689C724.253 84.3739 719.677 82.3239 715.487 82.5986C711.182 82.8282 707.131 85.2431 703.453 89.7613C698.952 95.2963 692.482 103.861 687.759 110.118C683.618 115.595 681.596 118.269 680.821 119.13C679.382 120.72 677.004 121.024 675.217 119.851C673.429 118.67 672.757 116.354 673.63 114.39C673.786 114.041 689.12 79.5236 693.626 65.805C701.17 42.8163 696.196 36.1538 685.057 32.4105C679.419 30.5204 674.79 30.6352 670.899 32.7631C665.139 35.9119 660.629 43.6855 657.492 55.8666C653.036 73.1604 645.065 96.5673 644.987 96.801C644.262 98.9084 642.089 100.126 639.928 99.6587C637.763 99.1749 636.308 97.1331 636.541 94.9109C636.578 94.5665 640.223 59.7616 640.937 42.6646C641.441 30.4589 639.346 21.8776 634.7 17.1708C631.236 13.6653 626.205 12.0704 619.285 12.3287C613.475 12.5337 609.19 14.2352 606.189 17.5193C601.86 22.2548 599.941 30.709 600.49 42.6523C601.064 55.2147 606.337 94.3246 606.39 94.7223C606.698 96.9937 605.209 99.1216 602.979 99.6013C600.761 100.073 598.534 98.7403 597.899 96.5345C596.735 92.5083 594.828 87.3833 592.618 81.4547C589.683 73.5622 586.353 64.616 583.475 54.8416C579.654 41.8733 574.426 33.6405 567.936 30.3646C563.664 28.2162 558.781 28.208 553.004 30.3482C546.985 32.5868 542.848 36.2522 540.708 41.2337C537.658 48.3349 538.568 58.1093 543.344 69.5032C545.706 75.1366 548.551 81.8647 551.532 88.9249C560.843 110.966 571.401 135.952 573.283 141.647C573.791 143.18 573.418 144.873 572.315 146.046C571.208 147.223 569.556 147.686 568.01 147.26C561.085 145.349 550.523 141.528 539.515 134.189C531.721 128.982 521.659 128.539 512.603 133.012C505.526 136.497 500.692 142.274 500.282 147.723C499.462 158.637 504.681 164.869 516.682 174.701C520.138 177.538 522.877 180.236 525.78 183.085C530.384 187.616 535.148 192.294 543.492 198.173C548.97 202.019 554.509 204.516 559.871 206.935C564.48 209.014 568.834 210.974 573.012 213.684C579.474 217.878 582.298 223.708 583.496 227.394C589.961 228.083 606.267 229.6 624.463 229.6C642.048 229.6 654.897 228.017 660.215 227.226C661.109 224.389 662.908 220.01 666.41 215.443C666.607 215.18 689.407 184.377 692.092 155.378C692.105 155.251 692.121 155.124 692.146 154.992C692.998 150.318 699.501 143.287 714.138 128.363C719.398 123 724.839 117.457 728.816 112.939C739.599 100.7 730.185 90.241 728.189 88.2689Z" fill="white"/>
<path fill-rule="evenodd" clip-rule="evenodd" d="M470.026 99.064C468.501 108.26 465.395 114.336 460.796 117.124C456.257 119.884 449.464 119.86 440.624 117.072C438.753 116.48 437.259 115.672 435.918 114.752C435.997 114.608 436.089 114.496 436.164 114.352C441.986 103.144 446.772 75.94 446.039 58.304C449.078 57.828 452.621 57.992 456.643 58.824C469.958 61.568 472.917 81.608 470.026 99.064ZM427.357 199.176C422.945 204.928 420.675 210.44 419.552 214.016C412.847 215.012 396.652 217 374.489 217C351.092 217 330.171 215.012 322.379 214.168C320.643 210.252 317.043 203.728 310.398 197.544C289.947 178.528 268.066 150.528 267.963 128.984C267.883 111.584 274.867 100.584 291.313 92.192C304.891 85.256 326.313 80.7 341.273 87.068L344.51 88.436C362.747 96.116 373.801 101.584 371.38 116.608C370.094 124.576 366.339 130.66 360.215 134.688C351.036 140.716 337.06 141.72 320.854 137.504C317.927 136.76 314.925 138.512 314.168 141.472C313.412 144.424 315.172 147.432 318.106 148.196C334.862 152.556 349.981 151.956 361.401 146.604C361.421 146.656 361.413 146.712 361.441 146.764C364.507 153.396 366.06 161.104 366.06 169.692C366.06 172.74 368.517 175.212 371.547 175.212C374.573 175.212 377.03 172.74 377.03 169.692C377.03 159.48 375.127 150.2 371.376 142.1C371.125 141.548 370.747 141.116 370.352 140.7C372.797 138.528 374.931 136.072 376.675 133.316C376.767 133.3 376.855 133.308 376.942 133.284C380.868 132.268 384.325 130.596 387.331 128.324C387.761 128.572 388.183 128.844 388.689 128.972C394.482 130.428 401.152 131.736 407.794 131.736C415.662 131.736 423.45 129.816 429.698 124.224C432.015 125.92 434.691 127.292 437.741 128.264C443.228 130.032 448.182 130.916 452.645 130.916C454.827 130.916 456.866 130.652 458.821 130.232C452.928 164.64 427.587 198.868 427.357 199.176ZM289.397 59.072C289.74 48.724 297.48 37.296 313.651 36.68C322.566 36.332 333.763 38.336 336.674 49.628C335.877 58.992 336.116 67.824 336.447 73.44C321.356 70.416 304.019 73.708 290.576 79.44C289.879 74.704 289.123 67.412 289.397 59.072ZM370.934 29.004L371.531 29C384.014 29 390.859 36.2 392.452 50.976C394.562 70.548 391.695 98.688 387.92 108.936C386.558 112.624 384.767 115.488 382.489 117.652C386.312 93.608 365.63 84.972 349.002 78.036L347.966 77.6C347.644 74.016 346.808 62.584 347.927 50.68C348.85 40.852 355.428 29.28 370.93 29.004M416.187 39.76C428.878 40.496 435.308 47.148 435.85 60.092C436.547 76.788 431.852 101.544 427.52 110.104C423.757 117.54 417.274 123.684 396.222 119.176C397.238 117.372 398.166 115.452 398.934 113.328C403.609 100.444 406.074 69.84 404.007 50.352C403.704 47.5 403.179 44.872 402.518 42.372C406.368 40.4 411.023 39.452 416.187 39.76Z" fill="white"/>
<path fill-rule="evenodd" clip-rule="evenodd" d="M206.952 156.427C205.324 159.646 203.581 162.229 201.753 164.225C201.273 164.562 200.851 164.972 200.523 165.464C198.711 167.132 196.82 168.256 194.848 168.756C190.433 169.851 184.894 168.198 178.375 163.791C176.997 162.856 175.984 161.843 175.123 160.777C183.487 153.795 193.688 132.504 197.657 117.666C200.277 118.023 203.11 119.019 206.189 120.667C216.382 126.132 213.729 143.037 206.952 156.427ZM173.229 220.961C169.375 225.84 167.387 230.514 166.407 233.548C160.544 234.389 146.39 236.074 127.018 236.074C105.928 236.074 87.1373 234.282 80.8643 233.614C79.1997 231.096 75.9689 226.299 71.6598 220.318C64.1527 209.916 59.7575 195.336 58.9498 178.178C58.5808 170.38 59.2983 161.597 59.9871 153.106C61.0695 139.802 62.0945 127.239 58.9293 118.888C52.4513 101.77 44.1816 80.1837 37.6503 65.1039C32.39 52.9351 31.3855 42.4965 34.7475 34.9156C37.1091 29.5938 41.6642 25.6783 48.298 23.288C54.653 21.0002 60.0363 21.0084 64.7431 23.3044C71.8935 26.8017 77.6499 35.5921 81.8606 49.4419C85.034 59.8805 88.7035 69.4376 91.9384 77.8631C94.3697 84.1976 96.4689 89.6711 97.7522 93.972C98.3713 96.0466 100.347 97.5267 102.574 97.3381C104.784 97.2438 106.637 95.6776 107.063 93.562C107.145 93.1397 115.448 51.6395 118.777 38.5031C121.918 26.1129 126.575 18.0441 132.623 14.5181C136.805 12.0868 141.86 11.6522 148.071 13.2225C155.443 15.0798 160.273 18.245 162.836 22.9026C166.28 29.1469 165.824 38.5687 161.483 50.9138C155.398 68.224 139.015 108.297 138.851 108.699C138.551 109.433 138.514 110.187 138.596 110.921L137.83 112.701C122.508 109.995 102.422 112.319 89.6137 118.662C87.2521 119.835 86.3091 122.656 87.5063 124.96C88.7035 127.264 91.5981 128.182 93.9515 127.014C106.198 120.946 127.088 119.08 140.507 122.856C166.911 130.294 170.695 137.35 168.633 148.58C167.284 155.923 164.439 160.839 159.674 164.045C151.659 169.449 137.78 170.236 117.26 166.444C110.618 165.255 102.291 169.859 100.688 170.798C98.4205 172.13 97.6866 175.008 99.0478 177.222C99.9498 178.686 101.536 179.494 103.164 179.494C104.005 179.494 104.857 179.273 105.628 178.822C108.293 177.259 113.057 175.295 115.333 175.652C115.497 176.3 115.772 176.927 116.227 177.481C120.265 182.36 122.311 188.698 122.311 196.316C122.311 198.899 124.46 200.998 127.108 200.998C129.753 200.998 131.901 198.899 131.901 196.316C131.901 189.182 130.425 182.86 127.535 177.399C144.476 179.264 156.64 177.46 165.115 171.757C166.603 170.757 167.94 169.625 169.178 168.395C170.289 169.498 171.515 170.539 172.917 171.491C179.834 176.165 186.115 178.473 191.966 178.473C193.532 178.473 195.062 178.276 196.566 177.948C188.366 201.134 173.373 220.773 173.229 220.957M176.935 93.6112C187.509 97.4283 191.261 104.497 188.403 115.214C186.296 123.139 182.417 132.459 178.358 140.081C176.374 127.211 164.508 120.36 147.219 115.054C148.645 111.741 150.745 106.78 153.127 100.905C155.919 94.0171 164.992 89.298 176.935 93.6112Z" fill="white"/>
</svg>
